<svg id="visual" viewBox="0 0 900 600" width="900" height="600" xmlns="http://www.w3.org/2000/svg" xmlns:xlink="http://www.w3.org/1999/xlink" version="1.1"><g stroke-width="1" stroke-linejoin="bevel"><path d="M399 279L402 225L319 319Z" fill="#413b6f" stroke="#413b6f"></path><path d="M402 225L311 170L319 319Z" fill="#413b6f" stroke="#413b6f"></path><path d="M319 319L333 364L399 279Z" fill="#da2f57" stroke="#da2f57"></path><path d="M311 170L230 164L319 319Z" fill="#ca2c66" stroke="#ca2c66"></path><path d="M319 319L234 339L333 364Z" fill="#b62f71" stroke="#b62f71"></path><path d="M230 164L234 339L319 319Z" fill="#88387c" stroke="#88387c"></path><path d="M333 364L435 369L399 279Z" fill="#88387c" stroke="#88387c"></path><path d="M399 279L537 226L402 225Z" fill="#da2f57" stroke="#da2f57"></path><path d="M112 410L232 379L234 339Z" fill="#b62f71" stroke="#b62f71"></path><path d="M234 339L232 379L333 364Z" fill="#413b6f" stroke="#413b6f"></path><path d="M333 364L395 511L435 369Z" fill="#b62f71" stroke="#b62f71"></path><path d="M485 64L371 79L402 225Z" fill="#413b6f" stroke="#413b6f"></path><path d="M402 225L371 79L311 170Z" fill="#2d3964" stroke="#2d3964"></path><path d="M311 170L287 77L230 164Z" fill="#a03478" stroke="#a03478"></path><path d="M371 79L287 77L311 170Z" fill="#ca2c66" stroke="#ca2c66"></path><path d="M287 77L188 130L230 164Z" fill="#e63946" stroke="#e63946"></path><path d="M230 164L118 168L234 339Z" fill="#ca2c66" stroke="#ca2c66"></path><path d="M535 311L537 226L399 279Z" fill="#573c77" stroke="#573c77"></path><path d="M435 369L535 311L399 279Z" fill="#573c77" stroke="#573c77"></path><path d="M188 130L118 168L230 164Z" fill="#413b6f" stroke="#413b6f"></path><path d="M527 515L535 366L435 369Z" fill="#b62f71" stroke="#b62f71"></path><path d="M435 369L535 366L535 311Z" fill="#b62f71" stroke="#b62f71"></path><path d="M535 311L574 265L537 226Z" fill="#6f3b7c" stroke="#6f3b7c"></path><path d="M537 226L485 64L402 225Z" fill="#88387c" stroke="#88387c"></path><path d="M371 79L294 0L287 77Z" fill="#a03478" stroke="#a03478"></path><path d="M563 368L574 265L535 311Z" fill="#ca2c66" stroke="#ca2c66"></path><path d="M537 226L571 197L485 64Z" fill="#88387c" stroke="#88387c"></path><path d="M574 265L571 197L537 226Z" fill="#b62f71" stroke="#b62f71"></path><path d="M136 485L239 481L232 379Z" fill="#2d3964" stroke="#2d3964"></path><path d="M232 379L239 481L333 364Z" fill="#6f3b7c" stroke="#6f3b7c"></path><path d="M287 77L206 0L188 130Z" fill="#88387c" stroke="#88387c"></path><path d="M188 130L120 109L118 168Z" fill="#413b6f" stroke="#413b6f"></path><path d="M406 0L294 0L371 79Z" fill="#2d3964" stroke="#2d3964"></path><path d="M206 0L120 109L188 130Z" fill="#413b6f" stroke="#413b6f"></path><path d="M485 64L406 0L371 79Z" fill="#88387c" stroke="#88387c"></path><path d="M527 515L563 368L535 366Z" fill="#a03478" stroke="#a03478"></path><path d="M535 366L563 368L535 311Z" fill="#6f3b7c" stroke="#6f3b7c"></path><path d="M0 195L89 335L118 168Z" fill="#2d3964" stroke="#2d3964"></path><path d="M118 168L89 335L234 339Z" fill="#b62f71" stroke="#b62f71"></path><path d="M239 481L395 511L333 364Z" fill="#b62f71" stroke="#b62f71"></path><path d="M89 335L112 410L234 339Z" fill="#6f3b7c" stroke="#6f3b7c"></path><path d="M294 0L206 0L287 77Z" fill="#1d3557" stroke="#1d3557"></path><path d="M571 197L564 89L485 64Z" fill="#ca2c66" stroke="#ca2c66"></path><path d="M485 64L499 0L406 0Z" fill="#573c77" stroke="#573c77"></path><path d="M218 600L266 533L239 481Z" fill="#da2f57" stroke="#da2f57"></path><path d="M239 481L266 533L395 511Z" fill="#ca2c66" stroke="#ca2c66"></path><path d="M564 89L499 0L485 64Z" fill="#e63946" stroke="#e63946"></path><path d="M112 410L136 485L232 379Z" fill="#da2f57" stroke="#da2f57"></path><path d="M395 511L527 515L435 369Z" fill="#88387c" stroke="#88387c"></path><path d="M465 600L527 515L395 511Z" fill="#da2f57" stroke="#da2f57"></path><path d="M0 135L118 168L120 109Z" fill="#2d3964" stroke="#2d3964"></path><path d="M0 135L0 195L118 168Z" fill="#e63946" stroke="#e63946"></path><path d="M89 335L0 372L112 410Z" fill="#b62f71" stroke="#b62f71"></path><path d="M112 410L0 484L136 485Z" fill="#2d3964" stroke="#2d3964"></path><path d="M0 195L0 326L89 335Z" fill="#6f3b7c" stroke="#6f3b7c"></path><path d="M206 0L93 0L120 109Z" fill="#da2f57" stroke="#da2f57"></path><path d="M574 265L678 193L571 197Z" fill="#573c77" stroke="#573c77"></path><path d="M571 197L678 193L564 89Z" fill="#a03478" stroke="#a03478"></path><path d="M564 89L615 0L499 0Z" fill="#413b6f" stroke="#413b6f"></path><path d="M688 260L678 193L574 265Z" fill="#2d3964" stroke="#2d3964"></path><path d="M688 260L574 265L563 368Z" fill="#e63946" stroke="#e63946"></path><path d="M93 0L0 135L120 109Z" fill="#413b6f" stroke="#413b6f"></path><path d="M218 600L290 600L266 533Z" fill="#6f3b7c" stroke="#6f3b7c"></path><path d="M266 533L290 600L395 511Z" fill="#b62f71" stroke="#b62f71"></path><path d="M685 397L688 260L563 368Z" fill="#ca2c66" stroke="#ca2c66"></path><path d="M0 326L0 372L89 335Z" fill="#88387c" stroke="#88387c"></path><path d="M290 600L421 600L395 511Z" fill="#2d3964" stroke="#2d3964"></path><path d="M123 600L218 600L136 485Z" fill="#413b6f" stroke="#413b6f"></path><path d="M136 485L218 600L239 481Z" fill="#413b6f" stroke="#413b6f"></path><path d="M707 101L615 0L564 89Z" fill="#a03478" stroke="#a03478"></path><path d="M421 600L465 600L395 511Z" fill="#b62f71" stroke="#b62f71"></path><path d="M622 517L563 368L527 515Z" fill="#a03478" stroke="#a03478"></path><path d="M622 517L685 397L563 368Z" fill="#da2f57" stroke="#da2f57"></path><path d="M638 600L622 517L527 515Z" fill="#da2f57" stroke="#da2f57"></path><path d="M678 193L707 101L564 89Z" fill="#da2f57" stroke="#da2f57"></path><path d="M790 86L707 101L833 160Z" fill="#a03478" stroke="#a03478"></path><path d="M781 278L678 193L688 260Z" fill="#e63946" stroke="#e63946"></path><path d="M0 372L0 484L112 410Z" fill="#6f3b7c" stroke="#6f3b7c"></path><path d="M0 484L123 600L136 485Z" fill="#1d3557" stroke="#1d3557"></path><path d="M93 0L0 0L0 135Z" fill="#a03478" stroke="#a03478"></path><path d="M707 101L672 0L615 0Z" fill="#2d3964" stroke="#2d3964"></path><path d="M830 431L781 278L685 397Z" fill="#573c77" stroke="#573c77"></path><path d="M685 397L781 278L688 260Z" fill="#6f3b7c" stroke="#6f3b7c"></path><path d="M707 101L790 86L672 0Z" fill="#b62f71" stroke="#b62f71"></path><path d="M700 600L710 495L622 517Z" fill="#413b6f" stroke="#413b6f"></path><path d="M622 517L710 495L685 397Z" fill="#e63946" stroke="#e63946"></path><path d="M465 600L638 600L527 515Z" fill="#a03478" stroke="#a03478"></path><path d="M833 160L707 101L678 193Z" fill="#a03478" stroke="#a03478"></path><path d="M0 484L0 600L123 600Z" fill="#ca2c66" stroke="#ca2c66"></path><path d="M900 229L833 160L781 278Z" fill="#da2f57" stroke="#da2f57"></path><path d="M781 278L833 160L678 193Z" fill="#ca2c66" stroke="#ca2c66"></path><path d="M638 600L700 600L622 517Z" fill="#88387c" stroke="#88387c"></path><path d="M710 495L830 431L685 397Z" fill="#413b6f" stroke="#413b6f"></path><path d="M814 496L830 431L710 495Z" fill="#573c77" stroke="#573c77"></path><path d="M900 73L804 0L790 86Z" fill="#e63946" stroke="#e63946"></path><path d="M790 86L804 0L672 0Z" fill="#ca2c66" stroke="#ca2c66"></path><path d="M783 600L814 496L710 495Z" fill="#a03478" stroke="#a03478"></path><path d="M900 316L900 229L781 278Z" fill="#e63946" stroke="#e63946"></path><path d="M833 160L900 73L790 86Z" fill="#2d3964" stroke="#2d3964"></path><path d="M900 316L781 278L830 431Z" fill="#88387c" stroke="#88387c"></path><path d="M900 432L900 316L830 431Z" fill="#88387c" stroke="#88387c"></path><path d="M700 600L783 600L710 495Z" fill="#413b6f" stroke="#413b6f"></path><path d="M900 494L900 432L830 431Z" fill="#413b6f" stroke="#413b6f"></path><path d="M900 229L900 73L833 160Z" fill="#2d3964" stroke="#2d3964"></path><path d="M900 494L830 431L814 496Z" fill="#ca2c66" stroke="#ca2c66"></path><path d="M900 600L900 494L814 496Z" fill="#ca2c66" stroke="#ca2c66"></path><path d="M900 73L900 0L804 0Z" fill="#ca2c66" stroke="#ca2c66"></path><path d="M783 600L900 600L814 496Z" fill="#b62f71" stroke="#b62f71"></path></g></svg>